<?xml version="1.0" encoding="UTF-8"?>
<svg width="120px" height="120px" viewBox="0 0 120 120" version="1.1" xmlns="http://www.w3.org/2000/svg" xmlns:xlink="http://www.w3.org/1999/xlink">
    <g id="页面-1" stroke="none" stroke-width="1" fill="none" fill-rule="evenodd">
        <g id="JPassword服务监测系统UI" transform="translate(-854.000000, -4510.000000)">
            <g id="编组-43备份-6" transform="translate(854.000000, 4510.000000)">
                <g id="编组-41" transform="translate(0.000000, 8.237986)">
                    <path d="M96.1217245,15.6299082 C109.294345,28.8489198 114.111397,47.2776994 110.572881,64.3069967 L118.824524,72.586793 C120.391825,74.159614 120.391825,76.7096606 118.824524,78.2824815 C117.257223,79.8553025 114.716125,79.8553025 113.148824,78.2824815 L105.344737,70.4509099 C104.169261,69.2712942 102.263438,69.2712942 101.087962,70.4509099 C99.9544673,71.5883964 99.9139853,73.4073857 100.966516,74.5935511 L101.087962,74.7226762 L107.473124,81.1303258 C109.824076,83.4895572 109.824076,87.3146271 107.473124,89.6738585 C105.122172,92.0330899 101.310526,92.0330899 98.9595745,89.6738585 L98.1907963,88.9025651 C97.5256721,89.6489185 96.8359815,90.3810082 96.1217245,91.0977806 C92.7102289,94.5212908 88.9505268,97.3823974 84.9570228,99.6811004 L32.1036749,99.6796339 L32.0716843,99.6743531 C28.0825437,97.3767995 24.3268596,94.517942 20.918701,91.0977806 C6.85520954,76.9847605 2.31568659,56.9334651 7.30013217,38.9868398 L1.7632139,33.4289347 C-0.587737967,31.0697033 -0.587737967,27.2446334 1.7632139,24.8854019 C4.11416577,22.5261705 7.92581186,22.5261705 10.2767637,24.8854019 L16.6619261,31.2930515 C17.837402,32.4726672 19.7432251,32.4726672 20.918701,31.2930515 C22.0521957,30.1555649 22.0926776,28.3365756 21.0401469,27.1504103 L20.918701,27.0212851 L13.1146137,19.1897135 C11.5473124,17.6168925 11.5473124,15.0668459 13.1146137,13.494025 C14.6819149,11.921204 17.2230123,11.921204 18.7903136,13.494025 L26.5944009,21.3255966 C27.7698768,22.5052124 29.6756999,22.5052124 30.8511758,21.3255966 C31.9846705,20.1881101 32.0251524,18.3691208 30.9726217,17.1829554 L30.8511758,17.0538303 L28.7227884,14.9179471 L28.7227884,14.9179471 C27.1554871,13.3451261 27.1681302,10.8077672 28.7354315,9.23494623 C28.9135339,9.05621658 29.1040479,8.89763328 29.3041527,8.75923356 L29.5338946,8.61198666 C50.1481949,-4.86395148 78.0308841,-2.52464432 96.1217245,15.6299082 Z" id="路径" fill="#F5F5F7"></path>
                    <g id="编组-45" transform="translate(37.090909, 32.951945)">
                        <path d="M13.9090909,0 L40.9090909,0 C43.620307,-4.98042308e-16 45.8181818,2.19787486 45.8181818,4.90909091 L45.8181818,39.5760349 C45.8181818,42.287251 43.620307,44.4851259 40.9090909,44.4851259 L13.9090909,44.4851259 C11.1978749,44.4851259 9,42.287251 9,39.5760349 L9,4.90909091 C9,2.19787486 11.1978749,-1.27831453e-15 13.9090909,0 Z" id="形状结合备份-40" stroke="#B8B8C8" stroke-width="1.09090909" fill="#ECECFD"></path>
                        <path d="M37.6363636,3.29519451 C40.3475797,3.29519451 42.5454545,5.49306937 42.5454545,8.20428542 L42.5454545,42.8712295 C42.5454545,45.5824455 40.3475797,47.7803204 37.6363636,47.7803204 L10.6363636,47.7803204 C7.92514759,47.7803204 5.72727273,45.5824455 5.72727273,42.8712295 L5.72672727,40.3651945 L4.5,40.3661327 C3.82219599,40.3661327 3.27272727,39.816664 3.27272727,39.13886 L3.27272727,39.1220096 C3.27272727,38.4442056 3.82219599,37.8947368 4.5,37.8947368 L5.72672727,37.8941945 L5.72672727,35.4231945 L4.5,35.423341 C3.82219599,35.423341 3.27272727,34.8738722 3.27272727,34.1960682 L3.27272727,34.1792178 C3.27272727,33.5014138 3.82219599,32.9519451 4.5,32.9519451 L5.72672727,32.9511945 L5.72672727,18.1231945 L4.5,18.1235698 C3.82219599,18.1235698 3.27272727,17.5741011 3.27272727,16.8962971 L3.27272727,16.8794466 C3.27272727,16.2016426 3.82219599,15.6521739 4.5,15.6521739 L5.72672727,15.6511945 L5.72672727,13.1801945 L4.5,13.180778 C3.82219599,13.180778 3.27272727,12.6313093 3.27272727,11.9535053 L3.27272727,11.9366549 C3.27272727,11.2588509 3.82219599,10.7093822 4.5,10.7093822 L5.72672727,10.7091945 L5.72727273,8.20428542 C5.72727273,5.49306937 7.92514759,3.29519451 10.6363636,3.29519451 L37.6363636,3.29519451 Z" id="形状结合" fill="#5B21FC" opacity="0.1"></path>
                        <path d="M34.3636364,6.59038902 C37.0748524,6.59038902 39.2727273,8.78826388 39.2727273,11.4994799 L39.2727273,46.166424 C39.2727273,48.87764 37.0748524,51.0755149 34.3636364,51.0755149 L7.36363636,51.0755149 C4.65242032,51.0755149 2.45454545,48.87764 2.45454545,46.166424 L2.454,43.660389 L1.22727273,43.6613272 C0.549468716,43.6613272 -1.39037554e-16,43.1118585 0,42.4340545 L0,42.4172041 C-3.05051656e-16,41.7394001 0.549468716,41.1899314 1.22727273,41.1899314 L2.454,41.189389 L2.454,38.718389 L1.22727273,38.7185355 C0.549468716,38.7185355 8.30070513e-17,38.1690668 0,37.4912627 L0,37.4744123 C-8.30070513e-17,36.7966083 0.549468716,36.2471396 1.22727273,36.2471396 L2.454,36.246389 L2.454,21.418389 L1.22727273,21.4187643 C0.549468716,21.4187643 -1.39037554e-16,20.8692956 0,20.1914916 L0,20.1746411 C-3.05051656e-16,19.4968371 0.549468716,18.9473684 1.22727273,18.9473684 L2.454,18.946389 L2.454,16.475389 L1.22727273,16.4759725 C0.549468716,16.4759725 8.30070513e-17,15.9265038 0,15.2486998 L0,15.2318494 C-8.30070513e-17,14.5540454 0.549468716,14.0045767 1.22727273,14.0045767 L2.454,14.004389 L2.45454545,11.4994799 C2.45454545,8.78826388 4.65242032,6.59038902 7.36363636,6.59038902 L34.3636364,6.59038902 Z" id="形状结合备份-39" stroke="#B8B8C8" stroke-width="1.09090909" fill="#FFFFFF"></path>
                        <path d="M15.1363636,16.4759725 L33.1363636,16.4759725 C33.8141676,16.4759725 34.3636364,17.0254413 34.3636364,17.7032453 L34.3636364,17.7200957 C34.3636364,18.3978997 33.8141676,18.9473684 33.1363636,18.9473684 L15.1363636,18.9473684 C14.4585596,18.9473684 13.9090909,18.3978997 13.9090909,17.7200957 L13.9090909,17.7032453 C13.9090909,17.0254413 14.4585596,16.4759725 15.1363636,16.4759725 Z M15.1363636,23.8901602 L33.1363636,23.8901602 C33.8141676,23.8901602 34.3636364,24.4396289 34.3636364,25.1174329 L34.3636364,25.1342833 C34.3636364,25.8120873 33.8141676,26.3615561 33.1363636,26.3615561 L15.1363636,26.3615561 C14.4585596,26.3615561 13.9090909,25.8120873 13.9090909,25.1342833 L13.9090909,25.1174329 C13.9090909,24.4396289 14.4585596,23.8901602 15.1363636,23.8901602 Z M15.1363636,31.3043478 L33.1363636,31.3043478 C33.8141676,31.3043478 34.3636364,31.8538165 34.3636364,32.5316206 L34.3636364,32.548471 C34.3636364,33.226275 33.8141676,33.7757437 33.1363636,33.7757437 L15.1363636,33.7757437 C14.4585596,33.7757437 13.9090909,33.226275 13.9090909,32.548471 L13.9090909,32.5316206 C13.9090909,31.8538165 14.4585596,31.3043478 15.1363636,31.3043478 Z M15.1363636,38.7185355 L33.1363636,38.7185355 C33.8141676,38.7185355 34.3636364,39.2680042 34.3636364,39.9458082 L34.3636364,39.9626586 C34.3636364,40.6404626 33.8141676,41.1899314 33.1363636,41.1899314 L15.1363636,41.1899314 C14.4585596,41.1899314 13.9090909,40.6404626 13.9090909,39.9626586 L13.9090909,39.9458082 C13.9090909,39.2680042 14.4585596,38.7185355 15.1363636,38.7185355 Z" id="形状结合" fill="#EBEBF7"></path>
                        <path d="M8.59090909,16.4759725 L11.3181818,16.4759725 C11.9959858,16.4759725 12.5454545,17.0254413 12.5454545,17.7032453 L12.5454545,17.7200957 C12.5454545,18.3978997 11.9959858,18.9473684 11.3181818,18.9473684 L8.59090909,18.9473684 C7.91310508,18.9473684 7.36363636,18.3978997 7.36363636,17.7200957 L7.36363636,17.7032453 C7.36363636,17.0254413 7.91310508,16.4759725 8.59090909,16.4759725 Z M8.59090909,23.8901602 L11.3181818,23.8901602 C11.9959858,23.8901602 12.5454545,24.4396289 12.5454545,25.1174329 L12.5454545,25.1342833 C12.5454545,25.8120873 11.9959858,26.3615561 11.3181818,26.3615561 L8.59090909,26.3615561 C7.91310508,26.3615561 7.36363636,25.8120873 7.36363636,25.1342833 L7.36363636,25.1174329 C7.36363636,24.4396289 7.91310508,23.8901602 8.59090909,23.8901602 Z M8.59090909,31.3043478 L11.3181818,31.3043478 C11.9959858,31.3043478 12.5454545,31.8538165 12.5454545,32.5316206 L12.5454545,32.548471 C12.5454545,33.226275 11.9959858,33.7757437 11.3181818,33.7757437 L8.59090909,33.7757437 C7.91310508,33.7757437 7.36363636,33.226275 7.36363636,32.548471 L7.36363636,32.5316206 C7.36363636,31.8538165 7.91310508,31.3043478 8.59090909,31.3043478 Z M8.59090909,38.7185355 L11.3181818,38.7185355 C11.9959858,38.7185355 12.5454545,39.2680042 12.5454545,39.9458082 L12.5454545,39.9626586 C12.5454545,40.6404626 11.9959858,41.1899314 11.3181818,41.1899314 L8.59090909,41.1899314 C7.91310508,41.1899314 7.36363636,40.6404626 7.36363636,39.9626586 L7.36363636,39.9458082 C7.36363636,39.2680042 7.91310508,38.7185355 8.59090909,38.7185355 Z" id="形状结合备份-42" fill="#EBEBF7"></path>
                    </g>
                    <path d="M14.006865,99.6796339 L97.993135,99.6796339 C98.5492112,99.6796339 99,100.130423 99,100.686499 C99,101.242575 98.5492112,101.693364 97.993135,101.693364 L14.006865,101.693364 C13.4507888,101.693364 13,101.242575 13,100.686499 C13,100.130423 13.4507888,99.6796339 14.006865,99.6796339 Z M27.006865,104.713959 L55.993135,104.713959 C56.5492112,104.713959 57,105.164748 57,105.720824 C57,106.2769 56.5492112,106.727689 55.993135,106.727689 L27.006865,106.727689 C26.4507888,106.727689 26,106.2769 26,105.720824 C26,105.164748 26.4507888,104.713959 27.006865,104.713959 Z M11.006865,109.748284 L34.993135,109.748284 C35.5492112,109.748284 36,110.199073 36,110.755149 C36,111.311225 35.5492112,111.762014 34.993135,111.762014 L11.006865,111.762014 C10.4507888,111.762014 10,111.311225 10,110.755149 C10,110.199073 10.4507888,109.748284 11.006865,109.748284 Z M49.006865,109.748284 L107.993135,109.748284 C108.549211,109.748284 109,110.199073 109,110.755149 C109,111.311225 108.549211,111.762014 107.993135,111.762014 L49.006865,111.762014 C48.4507888,111.762014 48,111.311225 48,110.755149 C48,110.199073 48.4507888,109.748284 49.006865,109.748284 Z M62.006865,104.713959 L65.993135,104.713959 C66.5492112,104.713959 67,105.164748 67,105.720824 C67,106.2769 66.5492112,106.727689 65.993135,106.727689 L62.006865,106.727689 C61.4507888,106.727689 61,106.2769 61,105.720824 C61,105.164748 61.4507888,104.713959 62.006865,104.713959 Z M74.006865,104.713959 L89.993135,104.713959 C90.5492112,104.713959 91,105.164748 91,105.720824 C91,106.2769 90.5492112,106.727689 89.993135,106.727689 L74.006865,106.727689 C73.4507888,106.727689 73,106.2769 73,105.720824 C73,105.164748 73.4507888,104.713959 74.006865,104.713959 Z M105.006865,99.6796339 L108.993135,99.6796339 C109.549211,99.6796339 110,100.130423 110,100.686499 C110,101.242575 109.549211,101.693364 108.993135,101.693364 L105.006865,101.693364 C104.450789,101.693364 104,101.242575 104,100.686499 C104,100.130423 104.450789,99.6796339 105.006865,99.6796339 Z" id="形状结合" fill="#F5F5F7"></path>
                </g>
                <ellipse id="椭圆形" stroke="#D4D4E0" stroke-width="1.09090909" cx="29.4545455" cy="85.6750572" rx="3.27272727" ry="3.29519451"></ellipse>
                <path d="M8.72727273,13.180778 C6.61854914,13.180778 4.90909091,14.9019717 4.90909091,17.0251716 C4.90909091,19.1483716 6.61854914,20.8695652 8.72727273,20.8695652 C10.8359963,20.8695652 12.5454545,19.1483716 12.5454545,17.0251716 C12.5454545,14.9019717 10.8359963,13.180778 8.72727273,13.180778 Z M8.72727273,14.2791762 C10.2335039,14.2791762 11.4545455,15.5086002 11.4545455,17.0251716 C11.4545455,18.541743 10.2335039,19.771167 8.72727273,19.771167 C7.22104159,19.771167 6,18.541743 6,17.0251716 C6,15.5086002 7.22104159,14.2791762 8.72727273,14.2791762 Z" id="椭圆形备份-104" fill="#F5F5F7" fill-rule="nonzero"></path>
                <ellipse id="椭圆形备份-102" stroke="#D4D4E0" stroke-width="1.09090909" cx="94.3636364" cy="63.7070938" rx="2.72727273" ry="2.74599542"></ellipse>
                <path d="M82.3636364,0 C80.556159,0 79.0909091,1.47530883 79.0909091,3.29519451 C79.0909091,5.11508018 80.556159,6.59038902 82.3636364,6.59038902 C84.1711137,6.59038902 85.6363636,5.11508018 85.6363636,3.29519451 C85.6363636,1.47530883 84.1711137,0 82.3636364,0 Z M82.3636364,1.09839817 C83.5686213,1.09839817 84.5454545,2.08193739 84.5454545,3.29519451 C84.5454545,4.50845162 83.5686213,5.49199085 82.3636364,5.49199085 C81.1586515,5.49199085 80.1818182,4.50845162 80.1818182,3.29519451 C80.1818182,2.08193739 81.1586515,1.09839817 82.3636364,1.09839817 Z" id="椭圆形备份-108" fill="#F5F5F7" fill-rule="nonzero"></path>
                <ellipse id="椭圆形备份-103" stroke="#D4D4E0" stroke-width="1.09090909" cx="31.6363636" cy="50.5263158" rx="2.18181818" ry="2.19679634"></ellipse>
                <ellipse id="椭圆形备份-105" stroke="#D4D4E0" stroke-width="1.09090909" cx="66.5454545" cy="34.0503432" rx="1.09090909" ry="1.09839817"></ellipse>
                <path d="M18,62.0594966 C18.3012462,62.0594966 18.5454545,62.3037049 18.5454545,62.6049511 L18.5447273,64.2554966 L20.1818182,64.2562929 C20.4830644,64.2562929 20.7272727,64.5005012 20.7272727,64.8017475 C20.7272727,65.1104828 20.4830644,65.3546911 20.1818182,65.3546911 L18.5447273,65.3544966 L18.5454545,67.0060329 C18.5454545,67.3072791 18.3012462,67.5514874 18,67.5514874 C17.6987538,67.5514874 17.4545455,67.3072791 17.4545455,67.0060329 L17.4537273,65.3544966 L15.8181818,65.3546911 C15.5169356,65.3546911 15.2727273,65.1104828 15.2727273,64.8092365 C15.2727273,64.5005012 15.5169356,64.2562929 15.8181818,64.2562929 L17.4537273,64.2554966 L17.4545455,62.6049511 C17.4545455,62.3037049 17.6987538,62.0594966 18,62.0594966 Z" id="形状结合" fill="#D4D4E0"></path>
                <path d="M54,21.9679634 C54.3012462,21.9679634 54.5454545,22.2121717 54.5454545,22.5134179 L54.5447273,24.1639634 L56.1818182,24.1647597 C56.4830644,24.1647597 56.7272727,24.408968 56.7272727,24.7102143 C56.7272727,25.0189496 56.4830644,25.2631579 56.1818182,25.2631579 L54.5447273,25.2629634 L54.5454545,26.9144997 C54.5454545,27.2157459 54.3012462,27.4599542 54,27.4599542 C53.6987538,27.4599542 53.4545455,27.2157459 53.4545455,26.9144997 L53.4537273,25.2629634 L51.8181818,25.2631579 C51.5169356,25.2631579 51.2727273,25.0189496 51.2727273,24.7177033 C51.2727273,24.408968 51.5169356,24.1647597 51.8181818,24.1647597 L53.4537273,24.1639634 L53.4545455,22.5134179 C53.4545455,22.2121717 53.6987538,21.9679634 54,21.9679634 Z" id="形状结合备份-41" fill="#D4D4E0" transform="translate(54.000000, 24.713959) rotate(-315.000000) translate(-54.000000, -24.713959) "></path>
                <path d="M88.9090909,31.8535469 C89.2103371,31.8535469 89.4545455,32.0977552 89.4545455,32.3990015 L89.4538182,34.0495469 L91.0909091,34.0503432 C91.3921553,34.0503432 91.6363636,34.2945516 91.6363636,34.5957978 C91.6363636,34.9045331 91.3921553,35.1487414 91.0909091,35.1487414 L89.4538182,35.1485469 L89.4545455,36.8000832 C89.4545455,37.1013294 89.2103371,37.3455378 88.9090909,37.3455378 C88.6078447,37.3455378 88.3636364,37.1013294 88.3636364,36.8000832 L88.3628182,35.1485469 L86.7272727,35.1487414 C86.4260265,35.1487414 86.1818182,34.9045331 86.1818182,34.6032869 C86.1818182,34.2945516 86.4260265,34.0503432 86.7272727,34.0503432 L88.3628182,34.0495469 L88.3636364,32.3990015 C88.3636364,32.0977552 88.6078447,31.8535469 88.9090909,31.8535469 Z" id="形状结合备份-37" fill="#D4D4E0"></path>
                <path d="M107.454545,4.94279176 C107.755792,4.94279176 108,5.18700008 108,5.48824631 L107.999273,7.13879176 L109.636364,7.1395881 C109.93761,7.1395881 110.181818,7.38379642 110.181818,7.68504265 C110.181818,7.99377795 109.93761,8.23798627 109.636364,8.23798627 L107.999273,8.23779176 L108,9.88932806 C108,10.1905743 107.755792,10.4347826 107.454545,10.4347826 C107.153299,10.4347826 106.909091,10.1905743 106.909091,9.88932806 L106.908273,8.23779176 L105.272727,8.23798627 C104.971481,8.23798627 104.727273,7.99377795 104.727273,7.69253172 C104.727273,7.38379642 104.971481,7.1395881 105.272727,7.1395881 L106.908273,7.13879176 L106.909091,5.48824631 C106.909091,5.18700008 107.153299,4.94279176 107.454545,4.94279176 Z" id="形状结合备份-38" fill="#F5F5F7"></path>
            </g>
        </g>
    </g>
</svg>