<?xml version="1.0" encoding="UTF-8"?>
<svg width="16px" height="16px" viewBox="0 0 16 16" version="1.1" xmlns="http://www.w3.org/2000/svg" xmlns:xlink="http://www.w3.org/1999/xlink">
    <g id="页面-1" stroke="none" stroke-width="1" fill="none" fill-rule="evenodd">
        <g id="JPassword服务监测系统UI" transform="translate(-334.000000, -3274.000000)" fill="#C3C0CF">
            <path d="M342.655094,3274.38313 L349.655094,3280.45245 C349.874158,3280.64239 350,3280.91806 350,3281.208 L350,3289 C350,3289.55228 349.552285,3290 349,3290 L344.285,3290 L344.285714,3287.53181 C344.285714,3287.01898 343.899674,3286.59631 343.402335,3286.53854 L343.285714,3286.53181 L340.714286,3286.53181 C340.162001,3286.53181 339.714286,3286.97953 339.714286,3287.53181 L339.714,3290 L335,3290 C334.447715,3290 334,3289.55228 334,3289 L334,3281.208 C334,3280.91806 334.125842,3280.64239 334.344906,3280.45245 L341.344906,3274.38313 C341.720822,3274.05719 342.279178,3274.05719 342.655094,3274.38313 Z" id="形状结合备份-149"></path>
        </g>
    </g>
</svg>