<?xml version="1.0" encoding="UTF-8"?>
<svg width="200px" height="34px" viewBox="0 0 200 34" version="1.1" xmlns="http://www.w3.org/2000/svg" xmlns:xlink="http://www.w3.org/1999/xlink">
    <g id="页面-1" stroke="none" stroke-width="1" fill="none" fill-rule="evenodd">
        <g id="JPassword服务监测系统UI" transform="translate(-94.000000, -232.000000)">
            <g id="编组-3备份-12" transform="translate(94.000000, 232.000000)">
                <g id="编组备份">
                    <rect id="矩形" fill="#D2324E" x="15.0009147" y="0" width="4.02463565" height="4.02463565"></rect>
                    <path d="M15,5.854 L18.659,5.854 L18.6596744,15.0009147 L24.3307519,15.0009147 C27.4628015,15.0009147 30.0018294,12.4618868 30.0018294,9.32983719 C30.0018294,6.22910806 27.5133282,3.70959954 24.4245335,3.65951944 L24.3307519,3.65875968 L20.854,3.658 L20.854,0 L24.3307519,0 C29.4834787,0 33.6605891,4.17711039 33.6605891,9.32983719 C33.6605891,14.4310367 29.5666032,18.5760346 24.4850378,18.6584244 L24.3307519,18.6596744 L18.6596744,18.6596744 L18.6596744,24.3307519 C18.6596744,29.4319514 14.5656885,33.5769493 9.4841231,33.6593391 L9.32983719,33.6605891 C4.17711039,33.6605891 0,29.4834787 0,24.3307519 C0,19.2295523 4.09398589,15.0845545 9.17555127,15.0021646 L9.32983719,15.0009147 L12.988,15 L12.988,18.659 L9.32983719,18.6596744 C6.19778756,18.6596744 3.65875968,21.1987023 3.65875968,24.3307519 C3.65875968,27.4628015 6.19778756,30.0018294 9.32983719,30.0018294 C12.4305663,30.0018294 14.9500748,27.5133282 15.0001549,24.4245335 L15,5.854 Z" id="形状结合" fill="#FFFFFF" fill-rule="nonzero"></path>
                </g>
                <path d="M47.4151473,4 L47.4151473,25.0378682 C47.4151473,27.6412126 45.3289774,29.757306 42.737178,29.8056079 L42.6465638,29.8064516 L39,29.8064516 L39,27.0014025 L42.6465638,27.0014025 C43.7084016,27.0014025 44.5733797,26.158546 44.6089596,25.1053716 L44.6100982,25.0378682 L44.6100982,4 L47.4151473,4 Z M183.740533,8.93464236 L183.740533,11.7396914 L179.532959,11.7396914 C178.471122,11.7396914 177.606143,12.5825479 177.570564,13.6357224 L177.569425,13.7032258 L177.569425,29.4115007 L174.764376,29.4115007 L174.764376,13.7032258 C174.764376,11.0998813 176.850546,8.98378795 179.442345,8.93548607 L179.532959,8.93464236 L183.740533,8.93464236 Z M199.729313,4.72706872 L199.729313,29.4115007 L191.033661,29.4115007 C187.005777,29.4115007 183.740533,26.1462562 183.740533,22.1183731 C183.740533,18.0904899 187.005777,14.8252454 191.033661,14.8252454 L196.924264,14.8252454 L196.924264,4.72706872 L199.729313,4.72706872 Z M196.924264,17.6302945 L191.033661,17.6302945 C188.584472,17.6302945 186.593491,19.5921181 186.546434,22.0300503 L186.545582,22.1183731 C186.545582,24.5970704 188.554963,26.6064516 191.033661,26.6064516 L196.924264,26.6064516 L196.924264,17.6302945 Z M53,4 L62.5371669,4 C66.1002943,4 68.9887798,6.88848548 68.9887798,10.4516129 C68.9887798,14.0147403 66.1002943,16.9032258 62.5371669,16.9032258 L55.805,16.903 L55.8050491,29.8 L53,29.8 L53,4 Z M62.5371669,6.80504909 L55.8050491,6.80504909 L55.8050491,14.0981767 L62.5371669,14.0981767 C64.5511085,14.0981767 66.1837307,12.4655545 66.1837307,10.4516129 C66.1837307,8.43767132 64.5511085,6.80504909 62.5371669,6.80504909 Z M99.3085554,18.0256522 C102.561846,18.0256522 105.199158,20.662965 105.199158,23.9162553 C105.199158,27.136684 102.614856,29.7535164 99.4069493,29.8060532 L91.7349229,29.8068583 L91.7349229,27.0018093 L99.3085554,27.0018093 C101.01266,27.0018093 102.394109,25.6203597 102.394109,23.9162553 C102.394109,22.2392001 101.056167,20.8746381 99.3894551,20.8317412 L99.3085554,20.8307013 L96.5035063,20.8307013 L96.4044039,20.8299023 C93.2062586,20.7783022 90.6129032,18.2338111 90.6129032,15.0803506 C90.6129032,11.8943803 93.2600055,9.33 96.5035063,9.33 L104.357644,9.33 L104.357644,12.1350491 L96.5035063,12.1350491 L96.4208474,12.1360818 C94.7457222,12.1779883 93.4179523,13.4899175 93.4179523,15.0803506 C93.4179523,16.6968564 94.7896125,18.0256522 96.5035063,18.0256522 L99.3085554,18.0256522 Z M116.13885,18.0256522 C119.39214,18.0256522 122.029453,20.662965 122.029453,23.9162553 C122.029453,27.136684 119.44515,29.7535164 116.237244,29.8060532 L108.565217,29.8068583 L108.565217,27.0018093 L116.13885,27.0018093 C117.842954,27.0018093 119.224404,25.6203597 119.224404,23.9162553 C119.224404,22.2392001 117.886462,20.8746381 116.21975,20.8317412 L116.13885,20.8307013 L113.614306,20.8307013 L113.515203,20.8299023 C110.317058,20.7783022 107.723703,18.2338111 107.723703,15.0803506 C107.723703,11.8943803 110.370805,9.33 113.614306,9.33 L121.468443,9.33 L121.468443,12.1350491 L113.614306,12.1350491 L113.531647,12.1360818 C111.856522,12.1779883 110.528752,13.4899175 110.528752,15.0803506 C110.528752,16.6968564 111.900412,18.0256522 113.614306,18.0256522 L116.13885,18.0256522 Z M86.6858345,29.8068583 L76.7279102,29.8068583 C73.3971607,29.8068583 70.6970547,27.1067523 70.6970547,23.7760028 C70.6970547,20.4452533 73.3971607,17.7451473 76.7279102,17.7451473 L83.8800547,17.745 L83.8807854,14.0985835 C83.8807854,13.0367457 83.0379289,12.1717676 81.9847545,12.1361877 L81.9172511,12.1350491 L73.2215989,12.1350491 L73.2215989,9.33 L81.9172511,9.33 C84.5205955,9.33 86.6366889,11.4161699 86.6849908,14.0079692 L86.6858345,14.0985835 L86.6858345,29.8068583 Z M83.8807854,20.5501964 L76.7279102,20.5501964 C74.9737552,20.5501964 73.5466219,21.9503427 73.5031253,23.6940203 L73.5021038,23.7760028 C73.5021038,25.5575665 74.9463465,27.0018093 76.7279102,27.0018093 L83.8807854,27.0018093 L83.8807854,20.5501964 Z M139.701262,9.33 L143.207522,26.393 L146.713885,9.33 L149.518934,9.33 L145.31136,29.8068583 L141.103787,29.8068583 L137.737522,13.425 L134.371669,29.8068583 L130.164095,29.8068583 L125.956522,9.33 L128.761571,9.33 L132.267522,26.394 L135.774194,9.33 L139.701262,9.33 Z M161.86115,9.33 C157.368511,9.33 153.726508,12.9720034 153.726508,17.4646424 L153.726508,21.672216 C153.726508,26.1648549 157.368511,29.8068583 161.86115,29.8068583 C166.353789,29.8068583 169.995792,26.1648549 169.995792,21.672216 L169.995792,17.4646424 C169.995792,12.9720034 166.353789,9.33 161.86115,9.33 Z M161.86115,12.1350491 C164.804603,12.1350491 167.190743,14.5211893 167.190743,17.4646424 L167.190743,21.672216 C167.190743,24.6156691 164.804603,27.0018093 161.86115,27.0018093 C158.917697,27.0018093 156.531557,24.6156691 156.531557,21.672216 L156.531557,17.4646424 C156.531557,14.5211893 158.917697,12.1350491 161.86115,12.1350491 Z" id="形状结合备份" fill="#FFFFFF" fill-rule="nonzero"></path>
            </g>
        </g>
    </g>
</svg>