<?xml version="1.0" encoding="UTF-8"?>
<svg width="18px" height="18px" viewBox="0 0 18 18" version="1.1" xmlns="http://www.w3.org/2000/svg" xmlns:xlink="http://www.w3.org/1999/xlink">
    <g id="页面-1" stroke="none" stroke-width="1" fill="none" fill-rule="evenodd">
        <g id="JPassword服务监测系统UI" transform="translate(-114.000000, -352.000000)" fill="#FFFFFF">
            <path d="M130,352 C131.104569,352 132,352.895431 132,354 L132,364 C132,365.104569 131.104569,366 130,366 L116,366 C114.895431,366 114,365.104569 114,364 L114,354 C114,352.895431 114.895431,352 116,352 L130,352 Z M125.911643,354.457791 C125.648718,353.892078 124.850293,353.875933 124.564714,354.430556 L121.760846,359.873894 L119.509933,357.117317 C119.145605,356.671193 118.435225,356.785227 118.228832,357.322966 L116.054649,362.987619 C115.906225,363.374327 116.099391,363.808137 116.486099,363.956562 L116.583565,363.986637 C116.943127,364.071448 117.318987,363.879594 117.455043,363.525112 L119.165846,359.066894 L121.323616,361.709636 L121.39597,361.786845 C121.751328,362.117022 122.340491,362.026867 122.571317,361.578579 L125.196846,356.478894 L127.203031,360.795319 C127.326024,361.059951 127.591346,361.229216 127.883163,361.229216 L129.268416,361.229216 C129.68263,361.229216 130.018416,360.89343 130.018416,360.479216 L130.01157,360.377445 C129.961907,360.01137 129.648112,359.729216 129.268416,359.729216 L128.360846,359.728894 Z M117,368 L129,368 C129.552285,368 130,368.447715 130,369 C130,369.552285 129.552285,370 129,370 L117,370 C116.447715,370 116,369.552285 116,369 C116,368.447715 116.447715,368 117,368 Z" id="服务运行工况"></path>
        </g>
    </g>
</svg>