<?xml version="1.0" encoding="UTF-8"?>
<svg width="18px" height="18px" viewBox="0 0 18 18" version="1.1" xmlns="http://www.w3.org/2000/svg" xmlns:xlink="http://www.w3.org/1999/xlink">
    <g id="页面-1" stroke="none" stroke-width="1" fill="none" fill-rule="evenodd">
        <g id="JPassword服务监测系统UI" transform="translate(-114.000000, -1352.000000)" fill="#4825B5">
            <path d="M130,1352 C131.104569,1352 132,1352.89543 132,1354 L132,1364 C132,1365.10457 131.104569,1366 130,1366 L116,1366 C114.895431,1366 114,1365.10457 114,1364 L114,1354 C114,1352.89543 114.895431,1352 116,1352 L130,1352 Z M125.911643,1354.45779 C125.648718,1353.89208 124.850293,1353.87593 124.564714,1354.43056 L121.760846,1359.87389 L119.509933,1357.11732 C119.145605,1356.67119 118.435225,1356.78523 118.228832,1357.32297 L116.054649,1362.98762 C115.906225,1363.37433 116.099391,1363.80814 116.486099,1363.95656 L116.583565,1363.98664 C116.943127,1364.07145 117.318987,1363.87959 117.455043,1363.52511 L119.165846,1359.06689 L121.323616,1361.70964 L121.39597,1361.78684 C121.751328,1362.11702 122.340491,1362.02687 122.571317,1361.57858 L125.196846,1356.47889 L127.203031,1360.79532 C127.326024,1361.05995 127.591346,1361.22922 127.883163,1361.22922 L129.268416,1361.22922 C129.68263,1361.22922 130.018416,1360.89343 130.018416,1360.47922 L130.01157,1360.37745 C129.961907,1360.01137 129.648112,1359.72922 129.268416,1359.72922 L128.360846,1359.72889 Z M117,1368 L129,1368 C129.552285,1368 130,1368.44772 130,1369 C130,1369.55228 129.552285,1370 129,1370 L117,1370 C116.447715,1370 116,1369.55228 116,1369 C116,1368.44772 116.447715,1368 117,1368 Z" id="服务运行工况"></path>
        </g>
    </g>
</svg>