<?xml version="1.0" encoding="UTF-8"?>
<svg width="18px" height="18px" viewBox="0 0 18 18" version="1.1" xmlns="http://www.w3.org/2000/svg" xmlns:xlink="http://www.w3.org/1999/xlink">
    <g id="页面-1" stroke="none" stroke-width="1" fill="none" fill-rule="evenodd">
        <g id="JPassword服务监测系统UI" transform="translate(-114.000000, -2404.000000)" fill="#4825B5">
            <path d="M130,2404 C131.104569,2404 132,2404.89543 132,2406 L132,2420 C132,2421.10457 131.104569,2422 130,2422 L116,2422 C114.895431,2422 114,2421.10457 114,2420 L114,2406 C114,2404.89543 114.895431,2404 116,2404 L119.25,2404 L119.25,2404.5 C119.25,2405.69086 120.175162,2406.66564 121.345951,2406.74481 L121.5,2406.75 L124.5,2406.75 C125.742641,2406.75 126.75,2405.74264 126.75,2404.5 L126.75,2404 L130,2404 Z M129.25,2418 L119.75,2418 C119.335786,2418 119,2418.33579 119,2418.75 C119,2419.16421 119.335786,2419.5 119.75,2419.5 L129.25,2419.5 C129.664214,2419.5 130,2419.16421 130,2418.75 C130,2418.33579 129.664214,2418 129.25,2418 Z M116.75,2418 C116.335786,2418 116,2418.33579 116,2418.75 C116,2419.16421 116.335786,2419.5 116.75,2419.5 C117.164214,2419.5 117.5,2419.16421 117.5,2418.75 C117.5,2418.33579 117.164214,2418 116.75,2418 Z M129.25,2413.5 L119.75,2413.5 C119.335786,2413.5 119,2413.83579 119,2414.25 C119,2414.66421 119.335786,2415 119.75,2415 L129.25,2415 C129.664214,2415 130,2414.66421 130,2414.25 C130,2413.83579 129.664214,2413.5 129.25,2413.5 Z M116.75,2413.5 C116.335786,2413.5 116,2413.83579 116,2414.25 C116,2414.66421 116.335786,2415 116.75,2415 C117.164214,2415 117.5,2414.66421 117.5,2414.25 C117.5,2413.83579 117.164214,2413.5 116.75,2413.5 Z M129.25,2409 L119.75,2409 C119.335786,2409 119,2409.33579 119,2409.75 C119,2410.16421 119.335786,2410.5 119.75,2410.5 L129.25,2410.5 C129.664214,2410.5 130,2410.16421 130,2409.75 C130,2409.33579 129.664214,2409 129.25,2409 Z M116.75,2409 C116.335786,2409 116,2409.33579 116,2409.75 C116,2410.16421 116.335786,2410.5 116.75,2410.5 C117.164214,2410.5 117.5,2410.16421 117.5,2409.75 C117.5,2409.33579 117.164214,2409 116.75,2409 Z M125.25,2404 L125.25,2404.5 C125.25,2404.91421 124.914214,2405.25 124.5,2405.25 L121.5,2405.25 C121.085786,2405.25 120.75,2404.91421 120.75,2404.5 L120.75,2404 L125.25,2404 Z" id="用户访问日志"></path>
        </g>
    </g>
</svg>