<?xml version="1.0" encoding="UTF-8"?>
<svg width="18px" height="18px" viewBox="0 0 18 18" version="1.1" xmlns="http://www.w3.org/2000/svg" xmlns:xlink="http://www.w3.org/1999/xlink">
    <g id="页面-1" stroke="none" stroke-width="1" fill="none" fill-rule="evenodd">
        <g id="JPassword服务监测系统UI" transform="translate(-114.000000, -404.000000)" fill="#FFFFFF">
            <path d="M130,404 C131.104569,404 132,404.895431 132,406 L132,420 C132,421.104569 131.104569,422 130,422 L116,422 C114.895431,422 114,421.104569 114,420 L114,406 C114,404.895431 114.895431,404 116,404 L119.25,404 L119.25,404.5 C119.25,405.690864 120.175162,406.665645 121.345951,406.744809 L121.5,406.75 L124.5,406.75 C125.742641,406.75 126.75,405.742641 126.75,404.5 L126.75,404 L130,404 Z M129.25,418 L119.75,418 C119.335786,418 119,418.335786 119,418.75 C119,419.164214 119.335786,419.5 119.75,419.5 L129.25,419.5 C129.664214,419.5 130,419.164214 130,418.75 C130,418.335786 129.664214,418 129.25,418 Z M116.75,418 C116.335786,418 116,418.335786 116,418.75 C116,419.164214 116.335786,419.5 116.75,419.5 C117.164214,419.5 117.5,419.164214 117.5,418.75 C117.5,418.335786 117.164214,418 116.75,418 Z M129.25,413.5 L119.75,413.5 C119.335786,413.5 119,413.835786 119,414.25 C119,414.664214 119.335786,415 119.75,415 L129.25,415 C129.664214,415 130,414.664214 130,414.25 C130,413.835786 129.664214,413.5 129.25,413.5 Z M116.75,413.5 C116.335786,413.5 116,413.835786 116,414.25 C116,414.664214 116.335786,415 116.75,415 C117.164214,415 117.5,414.664214 117.5,414.25 C117.5,413.835786 117.164214,413.5 116.75,413.5 Z M129.25,409 L119.75,409 C119.335786,409 119,409.335786 119,409.75 C119,410.164214 119.335786,410.5 119.75,410.5 L129.25,410.5 C129.664214,410.5 130,410.164214 130,409.75 C130,409.335786 129.664214,409 129.25,409 Z M116.75,409 C116.335786,409 116,409.335786 116,409.75 C116,410.164214 116.335786,410.5 116.75,410.5 C117.164214,410.5 117.5,410.164214 117.5,409.75 C117.5,409.335786 117.164214,409 116.75,409 Z M125.25,404 L125.25,404.5 C125.25,404.914214 124.914214,405.25 124.5,405.25 L121.5,405.25 C121.085786,405.25 120.75,404.914214 120.75,404.5 L120.75,404 L125.25,404 Z" id="用户访问日志"></path>
        </g>
    </g>
</svg>