<?xml version="1.0" encoding="UTF-8"?>
<svg width="18px" height="18px" viewBox="0 0 18 18" version="1.1" xmlns="http://www.w3.org/2000/svg" xmlns:xlink="http://www.w3.org/1999/xlink">
    <g id="页面-1" stroke="none" stroke-width="1" fill="none" fill-rule="evenodd">
        <g id="JPassword服务监测系统UI" transform="translate(-114.000000, -3456.000000)" fill="#4825B5">
            <path d="M130,3456 C131.104569,3456 132,3456.89543 132,3458 L132,3472 C132,3473.10457 131.104569,3474 130,3474 L116,3474 C114.895431,3474 114,3473.10457 114,3472 L114,3458 C114,3456.89543 114.895431,3456 116,3456 L130,3456 Z M123,3458 C120.65279,3458 118.75,3459.90279 118.75,3462.25 C118.75,3463.57548 119.356786,3464.75924 120.308021,3465.53763 C119.227007,3465.9887 118.268454,3466.7089 117.524929,3467.64211 C116.712988,3468.66119 116.199633,3469.87427 116.047553,3471.17678 C115.999516,3471.5882 116.294095,3471.96067 116.705514,3472.0087 C117.116933,3472.05674 117.489395,3471.76216 117.537432,3471.35074 C117.656674,3470.32948 118.058825,3469.37918 118.698095,3468.57682 C119.736578,3467.2734 121.304478,3466.5 123,3466.5 C125.79979,3466.5 128.142486,3468.59668 128.462849,3471.35043 C128.510715,3471.76187 128.883055,3472.0566 129.294493,3472.00874 C129.705932,3471.96087 130.000666,3471.58853 129.952801,3471.1771 C129.653695,3468.60607 127.972454,3466.48598 125.693257,3465.53785 C126.643635,3464.75842 127.25,3463.57502 127.25,3462.25 C127.25,3459.90279 125.34721,3458 123,3458 Z M123,3459.5 C124.518783,3459.5 125.75,3460.73122 125.75,3462.25 C125.75,3463.76878 124.518783,3465 123,3465 C121.481217,3465 120.25,3463.76878 120.25,3462.25 C120.25,3460.73122 121.481217,3459.5 123,3459.5 Z" id="用户列表数据"></path>
        </g>
    </g>
</svg>