<?xml version="1.0" encoding="UTF-8"?>
<svg width="18px" height="18px" viewBox="0 0 18 18" version="1.1" xmlns="http://www.w3.org/2000/svg" xmlns:xlink="http://www.w3.org/1999/xlink">
    <g id="页面-1" stroke="none" stroke-width="1" fill="none" fill-rule="evenodd">
        <g id="JPassword服务监测系统UI" transform="translate(-114.000000, -4508.000000)" fill="#4825B5">
            <path d="M130,4508 C131.104569,4508 132,4508.89543 132,4510 L132,4524 C132,4525.10457 131.104569,4526 130,4526 L116,4526 C114.895431,4526 114,4525.10457 114,4524 L114,4510 C114,4508.89543 114.895431,4508 116,4508 L119.25,4508 L119.25,4508.5 C119.25,4509.69086 120.175162,4510.66564 121.345951,4510.74481 L121.5,4510.75 L124.5,4510.75 C125.742641,4510.75 126.75,4509.74264 126.75,4508.5 L126.75,4508 L130,4508 Z M119.818019,4512.75736 C119.525126,4512.46447 119.050253,4512.46447 118.757359,4512.75736 C118.464466,4513.05025 118.464466,4513.52513 118.757359,4513.81802 L120.94,4516 L116.75,4516 C116.335786,4516 116,4516.33579 116,4516.75 C116,4517.16421 116.335786,4517.5 116.75,4517.5 L122.25,4517.5 L122.25,4520 L117.75,4520 C117.335786,4520 117,4520.33579 117,4520.75 C117,4521.16421 117.335786,4521.5 117.75,4521.5 L122.25,4521.5 L122.25,4523.25 C122.25,4523.66421 122.585786,4524 123,4524 C123.414214,4524 123.75,4523.66421 123.75,4523.25 L123.75,4521.5 L128.25,4521.5 C128.664214,4521.5 129,4521.16421 129,4520.75 C129,4520.33579 128.664214,4520 128.25,4520 L123.75,4520 L123.75,4517.5 L129.25,4517.5 C129.664214,4517.5 130,4517.16421 130,4516.75 C130,4516.33579 129.664214,4516 129.25,4516 L125.06,4516 L127.242641,4513.81802 C127.535534,4513.52513 127.535534,4513.05025 127.242641,4512.75736 C126.949747,4512.46447 126.474874,4512.46447 126.181981,4512.75736 L123,4515.93934 Z M125.25,4508 L125.25,4508.5 C125.25,4508.91421 124.914214,4509.25 124.5,4509.25 L121.5,4509.25 C121.085786,4509.25 120.75,4508.91421 120.75,4508.5 L120.75,4508 L125.25,4508 Z" id="用户付费数据"></path>
        </g>
    </g>
</svg>