<?xml version="1.0" encoding="UTF-8"?>
<svg width="18px" height="18px" viewBox="0 0 18 18" version="1.1" xmlns="http://www.w3.org/2000/svg" xmlns:xlink="http://www.w3.org/1999/xlink">
    <g id="页面-1" stroke="none" stroke-width="1" fill="none" fill-rule="evenodd">
        <g id="JPassword服务监测系统UI" transform="translate(-114.000000, -456.000000)" fill="#FFFFFF">
            <path d="M130,456 C131.104569,456 132,456.895431 132,458 L132,472 C132,473.104569 131.104569,474 130,474 L116,474 C114.895431,474 114,473.104569 114,472 L114,458 C114,456.895431 114.895431,456 116,456 L130,456 Z M123,458 C120.65279,458 118.75,459.90279 118.75,462.25 C118.75,463.575483 119.356786,464.759244 120.308021,465.537634 C119.227007,465.988696 118.268454,466.708899 117.524929,467.642109 C116.712988,468.661188 116.199633,469.87427 116.047553,471.176785 C115.999516,471.588204 116.294095,471.960666 116.705514,472.008703 C117.116933,472.05674 117.489395,471.76216 117.537432,471.350742 C117.656674,470.329479 118.058825,469.379175 118.698095,468.576818 C119.736578,467.273403 121.304478,466.5 123,466.5 C125.79979,466.5 128.142486,468.59668 128.462849,471.350432 C128.510715,471.76187 128.883055,472.056604 129.294493,472.008739 C129.705932,471.960873 130.000666,471.588534 129.952801,471.177095 C129.653695,468.606071 127.972454,466.485983 125.693257,465.537847 C126.643635,464.758422 127.25,463.575023 127.25,462.25 C127.25,459.90279 125.34721,458 123,458 Z M123,459.5 C124.518783,459.5 125.75,460.731217 125.75,462.25 C125.75,463.768783 124.518783,465 123,465 C121.481217,465 120.25,463.768783 120.25,462.25 C120.25,460.731217 121.481217,459.5 123,459.5 Z" id="用户列表数据"></path>
        </g>
    </g>
</svg>