<?xml version="1.0" encoding="UTF-8"?>
<svg width="18px" height="18px" viewBox="0 0 18 18" version="1.1" xmlns="http://www.w3.org/2000/svg" xmlns:xlink="http://www.w3.org/1999/xlink">
    <g id="页面-1" stroke="none" stroke-width="1" fill="none" fill-rule="evenodd">
        <g id="JPassword服务监测系统UI" transform="translate(-114.000000, -508.000000)" fill="#FFFFFF">
            <path d="M130,508 C131.104569,508 132,508.895431 132,510 L132,524 C132,525.104569 131.104569,526 130,526 L116,526 C114.895431,526 114,525.104569 114,524 L114,510 C114,508.895431 114.895431,508 116,508 L119.25,508 L119.25,508.5 C119.25,509.690864 120.175162,510.665645 121.345951,510.744809 L121.5,510.75 L124.5,510.75 C125.742641,510.75 126.75,509.742641 126.75,508.5 L126.75,508 L130,508 Z M119.818019,512.757359 C119.525126,512.464466 119.050253,512.464466 118.757359,512.757359 C118.464466,513.050253 118.464466,513.525126 118.757359,513.818019 L120.94,516 L116.75,516 C116.335786,516 116,516.335786 116,516.75 C116,517.164214 116.335786,517.5 116.75,517.5 L122.25,517.5 L122.25,520 L117.75,520 C117.335786,520 117,520.335786 117,520.75 C117,521.164214 117.335786,521.5 117.75,521.5 L122.25,521.5 L122.25,523.25 C122.25,523.664214 122.585786,524 123,524 C123.414214,524 123.75,523.664214 123.75,523.25 L123.75,521.5 L128.25,521.5 C128.664214,521.5 129,521.164214 129,520.75 C129,520.335786 128.664214,520 128.25,520 L123.75,520 L123.75,517.5 L129.25,517.5 C129.664214,517.5 130,517.164214 130,516.75 C130,516.335786 129.664214,516 129.25,516 L125.06,516 L127.242641,513.818019 C127.535534,513.525126 127.535534,513.050253 127.242641,512.757359 C126.949747,512.464466 126.474874,512.464466 126.181981,512.757359 L123,515.93934 Z M125.25,508 L125.25,508.5 C125.25,508.914214 124.914214,509.25 124.5,509.25 L121.5,509.25 C121.085786,509.25 120.75,508.914214 120.75,508.5 L120.75,508 L125.25,508 Z" id="用户付费数据"></path>
        </g>
    </g>
</svg>