<?xml version="1.0" encoding="UTF-8"?>
<svg width="480px" height="269px" viewBox="0 0 480 269" version="1.1" xmlns="http://www.w3.org/2000/svg" xmlns:xlink="http://www.w3.org/1999/xlink">
    <defs>
        <path d="M2,0 L91,0 L91,0 L89,4 L2,4 C0.8954305,4 1.3527075e-16,3.1045695 0,2 C-1.3527075e-16,0.8954305 0.8954305,4.2495073e-16 2,0 Z" id="path-1"></path>
        <path d="M66.1355394,8.40943353 L66.5023718,8.3310102 C68.302205,7.96655142 70.1648116,7.77525726 72.0720721,7.77525726 C75.6636999,7.77525726 79.096976,8.45362367 82.2509002,9.68928814 C84.4631753,6.24371337 90.4617974,-0.598426521 93.0222332,0.604076232 C95.5984709,1.81400026 95.2204969,13.570171 93.7229983,18.06741 C97.6467376,22.8785339 100,29.0237548 100,35.7189192 C100,51.1517776 87.4962408,63.6625812 72.0720721,63.6625812 C71.5145069,63.6625812 70.960758,63.6462329 70.411278,63.6139892 C69.9180612,63.6458542 69.4204435,63.6625812 68.9189189,63.6625812 L22.0720721,63.6625812 C9.88200327,63.6625812 1.49285287e-15,53.7805779 0,41.5905091 L0,41.5656392 C-1.49285287e-15,29.3755704 9.88200327,19.4935671 22.0720721,19.4935671 L49.331871,19.4933087 C50.8547712,17.360379 52.6699537,15.450708 54.7188788,13.8228684 C54.6554701,11.0995678 53.6368626,1.219896 55.4854461,0.114248247 C57.2715744,-0.954044627 63.9678886,5.75338785 66.1355394,8.40943353 Z" id="path-3"></path>
    </defs>
    <g id="页面-1" stroke="none" stroke-width="1" fill="none" fill-rule="evenodd">
        <g id="JPassword服务监测系统UI" transform="translate(-674.000000, -472.000000)">
            <g id="编组-2" transform="translate(674.000000, 472.000000)">
                <path d="M300.264814,16.071792 C341.778852,16.8456483 344.637728,55.5478958 370.594849,92.5371515 C396.551969,129.526407 425.957945,125.688227 428.458441,146.666667 C430.958937,167.645106 403.555556,187.574766 363.95157,185.131638 C324.347584,182.68851 327.886968,262.836372 256.775857,262.836372 C185.664746,262.836372 166.260294,179.214948 116.186929,189.715548 C66.1135642,200.216147 40.8945172,155.766181 51.3431656,133.948916 C61.791814,112.131652 105.599996,115.303786 110.893463,80.6263513 C116.186929,45.9489162 148.320328,11.726694 188.380106,19.5108494 C211.040183,23.914008 230.580934,21.9878207 250.794502,19.6239541 L252.962989,19.3692763 C267.800936,17.6212013 283.072132,15.7513061 300.264814,16.071792 Z M367.767747,190.315203 C370.679344,192.654508 368.793011,198.399719 363.133729,201.787446 C350.914345,209.102144 332.016759,219.116799 327.409409,236.507395 C324.951864,245.783478 322.239612,235.176261 333.808482,218.097109 C345.377353,201.017957 362.40114,186.003435 367.767747,190.315203 Z M80.598,195.54 L80.9020689,195.563749 C82.1508638,195.656348 83.2626592,195.696367 84.2041039,195.696367 C86.6304637,195.696367 84.7088576,196.008879 80.7940264,195.563899 L80.598,195.54 Z M44.5229025,154.777371 C50.3738987,154.777371 48.5755245,167.81551 53.4417474,178.393361 C59.2872962,191.1 73.090338,194.629453 80.453643,195.523878 L80.598,195.54 L80.5581169,195.537181 C72.6860152,194.90501 59.694361,192.21986 49.4619607,184.514354 L49.0123466,184.171138 C36.9224511,174.81587 38.6719063,154.777371 44.5229025,154.777371 Z M440,145.810667 C440,158.693124 425.935789,167.489877 422.199635,169.20884 C418.463481,170.927803 438.324706,160.497337 434.192379,144.484852 C433.139364,140.40449 426.952012,133.220791 430.045688,129.947522 C433.139364,126.674253 440,132.928211 440,145.810667 Z M160.652921,7.37384276 C165.509108,5.62079893 167.992921,8.91942933 164.648502,10.0279047 C161.304083,11.1363801 154.138176,19.696367 150.64229,16.071792 C147.146404,12.4472171 155.796733,9.12688659 160.652921,7.37384276 Z M309.579707,11.726694 C304.023704,16.8283008 290.515657,7.64622443 273.46768,11.8454609 C212.611968,26.8353641 150.147537,1.49773353 177.099931,6.8454037 C177.908503,7.0058338 178.707903,7.1656034 179.499891,7.32418046 L181.074504,7.63958687 C205.865888,12.6033538 224.399516,16.0155861 292.514557,0.981595963 C311.085873,-3.11736621 315.13571,6.62508721 309.579707,11.726694 Z" id="形状结合" fill="#EDE9FF" opacity="0.2" transform="translate(240.000000, 131.418186) scale(1, -1) translate(-240.000000, -131.418186) "></path>
                <path d="M411.924039,120 L411.924039,147.426765 L327.728028,147.426765" id="路径-5" stroke="#A89DE2" stroke-linecap="round" stroke-linejoin="round" stroke-dasharray="2,4"></path>
                <line x1="295" y1="56" x2="295" y2="115.835872" id="路径-6" stroke="#A89DE2" stroke-linecap="round" stroke-linejoin="round" stroke-dasharray="2,4"></line>
                <line x1="186.5" y1="93" x2="186.5" y2="115.835872" id="路径-7" stroke="#A89DE2" stroke-linecap="round" stroke-linejoin="round" stroke-dasharray="2,4"></line>
                <path d="M77,72 L77,173.645985 L152.84782,173.645985" id="路径-8" stroke="#A89DE2" stroke-linecap="round" stroke-linejoin="round" stroke-dasharray="2,4"></path>
                <path d="M409.885714,66 C398.394963,66 389.085714,75.3240491 389.085714,86.8187599 L389.099979,87.5963777 C389.118981,88.113438 389.15693,88.6276683 389.213607,89.1383066 L389.24,89.3534118 L389.314286,89.3513514 C380.853211,89.3513514 374,96.2154579 374,104.675676 C374,113.135893 380.853211,120 389.314286,120 L435.942857,120 L436.381222,119.994655 C446.183429,119.749873 454,111.734887 454,101.928458 C454,91.9509935 445.91877,83.8569157 435.942857,83.8569157 L435.286117,83.8686704 C433.75786,83.9234535 432.259861,84.1692227 430.819507,84.5954112 L430.5728,84.6744706 L430.545456,84.40406 C429.340368,74.0218533 420.537773,66 409.885714,66 Z" id="路径备份-18" fill="#F3F1FF" fill-rule="nonzero"></path>
                <path d="M411.885714,66 C400.394963,66 391.085714,75.3240491 391.085714,86.8187599 L391.099979,87.5963777 C391.118981,88.113438 391.15693,88.6276683 391.213607,89.1383066 L391.24,89.3534118 L391.314286,89.3513514 C382.853211,89.3513514 376,96.2154579 376,104.675676 C376,113.135893 382.853211,120 391.314286,120 L437.942857,120 L438.381222,119.994655 C448.183429,119.749873 456,111.734887 456,101.928458 C456,91.9509935 447.91877,83.8569157 437.942857,83.8569157 L437.286117,83.8686704 C435.75786,83.9234535 434.259861,84.1692227 432.819507,84.5954112 L432.5728,84.6744706 L432.545456,84.40406 C431.340368,74.0218533 422.537773,66 411.885714,66 Z" id="路径备份-20" stroke="#BCB3F1" stroke-linejoin="round" fill-rule="nonzero"></path>
                <path d="M423.333333,87 C424.806093,87 426,88.1939073 426,89.6666667 L426,103 C426,104.472759 424.806093,105.666667 423.333333,105.666667 L404.666667,105.666667 C403.193907,105.666667 402,104.472759 402,103 L402,89.6666667 C402,88.1939073 403.193907,87 404.666667,87 L423.333333,87 Z M417.882191,90.2770547 C417.531623,89.5227704 416.467057,89.5012447 416.086286,90.240741 L412.347795,97.4985258 L409.346577,93.82309 C408.860806,93.2282579 407.913633,93.3803031 407.638443,94.0972886 L404.739532,101.650158 C404.541633,102.165769 404.799189,102.744183 405.314799,102.942083 L405.444754,102.982183 C405.92417,103.095264 406.425316,102.839459 406.606723,102.366816 L408.887795,96.4225258 L411.764821,99.9461819 L411.861293,100.049126 C412.335103,100.489362 413.120654,100.369156 413.428423,99.7714393 L416.929128,92.9718591 L419.604042,98.7270925 C419.768031,99.0799346 420.121795,99.3056214 420.510883,99.3056214 L422.357888,99.3056214 C422.910173,99.3056214 423.357888,98.8579062 423.357888,98.3056214 L423.34876,98.1699273 C423.282543,97.6818266 422.864149,97.3056214 422.357888,97.3056214 L421.147795,97.3051924 Z M406,108.333333 L422,108.333333 C422.73638,108.333333 423.333333,108.930287 423.333333,109.666667 C423.333333,110.403046 422.73638,111 422,111 L406,111 C405.26362,111 404.666667,110.403046 404.666667,109.666667 C404.666667,108.930287 405.26362,108.333333 406,108.333333 Z" id="服务运行工况" fill="#A89DE2" opacity="0.5"></path>
                <path d="M291.4,9 C281.345593,9 273.2,17.1153761 273.2,27.1200318 L273.212482,27.7968473 C273.229109,28.2468812 273.262314,28.694452 273.311906,29.1388965 L273.335,29.3261176 L273.4,29.3243243 C265.99656,29.3243243 260,35.2986392 260,42.6621622 C260,50.0256851 265.99656,56 273.4,56 L314.2,56 L314.583569,55.9953479 C323.160501,55.7822968 330,48.8062908 330,40.2710652 C330,31.5869759 322.928924,24.5421304 314.2,24.5421304 L313.625353,24.5523613 C312.288128,24.6000429 310.977378,24.8139531 309.717069,25.184895 L309.5012,25.2537059 L309.477274,25.0183485 C308.422822,15.9819835 300.720551,9 291.4,9 Z" id="路径备份-22" fill="#F3F1FF" fill-rule="nonzero"></path>
                <path d="M293.4,9 C283.345593,9 275.2,17.1153761 275.2,27.1200318 L275.212482,27.7968473 C275.229109,28.2468812 275.262314,28.694452 275.311906,29.1388965 L275.335,29.3261176 L275.4,29.3243243 C267.99656,29.3243243 262,35.2986392 262,42.6621622 C262,50.0256851 267.99656,56 275.4,56 L316.2,56 L316.583569,55.9953479 C325.160501,55.7822968 332,48.8062908 332,40.2710652 C332,31.5869759 324.928924,24.5421304 316.2,24.5421304 L315.625353,24.5523613 C314.288128,24.6000429 312.977378,24.8139531 311.717069,25.184895 L311.5012,25.2537059 L311.477274,25.0183485 C310.422822,15.9819835 302.720551,9 293.4,9 Z" id="路径备份-25" stroke="#BCB3F1" stroke-linejoin="round" fill-rule="nonzero"></path>
                <path d="M302,27 C303.104569,27 304,27.8954305 304,29 L304,43 C304,44.1045695 303.104569,45 302,45 L288,45 C286.895431,45 286,44.1045695 286,43 L286,29 C286,27.8954305 286.895431,27 288,27 L291.25,27 L291.25,27.5 C291.25,28.690864 292.175162,29.6656449 293.345951,29.7448092 L293.5,29.75 L296.5,29.75 C297.742641,29.75 298.75,28.7426407 298.75,27.5 L298.75,27 L302,27 Z M301.25,41 L291.75,41 C291.335786,41 291,41.3357864 291,41.75 C291,42.1642136 291.335786,42.5 291.75,42.5 L301.25,42.5 C301.664214,42.5 302,42.1642136 302,41.75 C302,41.3357864 301.664214,41 301.25,41 Z M288.75,41 C288.335786,41 288,41.3357864 288,41.75 C288,42.1642136 288.335786,42.5 288.75,42.5 C289.164214,42.5 289.5,42.1642136 289.5,41.75 C289.5,41.3357864 289.164214,41 288.75,41 Z M301.25,36.5 L291.75,36.5 C291.335786,36.5 291,36.8357864 291,37.25 C291,37.6642136 291.335786,38 291.75,38 L301.25,38 C301.664214,38 302,37.6642136 302,37.25 C302,36.8357864 301.664214,36.5 301.25,36.5 Z M288.75,36.5 C288.335786,36.5 288,36.8357864 288,37.25 C288,37.6642136 288.335786,38 288.75,38 C289.164214,38 289.5,37.6642136 289.5,37.25 C289.5,36.8357864 289.164214,36.5 288.75,36.5 Z M301.25,32 L291.75,32 C291.335786,32 291,32.3357864 291,32.75 C291,33.1642136 291.335786,33.5 291.75,33.5 L301.25,33.5 C301.664214,33.5 302,33.1642136 302,32.75 C302,32.3357864 301.664214,32 301.25,32 Z M288.75,32 C288.335786,32 288,32.3357864 288,32.75 C288,33.1642136 288.335786,33.5 288.75,33.5 C289.164214,33.5 289.5,33.1642136 289.5,32.75 C289.5,32.3357864 289.164214,32 288.75,32 Z M297.25,27 L297.25,27.5 C297.25,27.9142136 296.914214,28.25 296.5,28.25 L293.5,28.25 C293.085786,28.25 292.75,27.9142136 292.75,27.5 L292.75,27 L297.25,27 Z" id="用户访问日志" fill="#A89DE2" opacity="0.5"></path>
                <path d="M183.428571,59 C176.246852,59 170.428571,64.8706976 170.428571,72.1081081 L170.437487,72.5977193 C170.449363,72.9232758 170.473081,73.2470504 170.508504,73.5685634 L170.525,73.704 L170.571429,73.7027027 C165.283257,73.7027027 161,78.0245475 161,83.3513514 C161,88.6781552 165.283257,93 170.571429,93 L199.714286,93 L199.988264,92.9966346 C206.114643,92.8425126 211,87.7960401 211,81.6216216 C211,75.3395145 205.949231,70.2432432 199.714286,70.2432432 L199.303823,70.2506443 C198.348663,70.2851374 197.412413,70.439881 196.512192,70.7082219 L196.358,70.758 L196.34091,70.5877415 C195.58773,64.0507965 190.086108,59 183.428571,59 Z" id="路径备份-24" fill="#F3F1FF" fill-rule="nonzero"></path>
                <path d="M185.428571,58.5 C188.869408,58.5 192.01307,59.7987623 194.399652,61.9405192 C196.687591,63.9937529 198.279443,66.8219771 198.769567,70.022525 C199.689162,69.891698 200.48095,69.7800343 201.285779,69.75097 C204.741514,69.7468154 207.768482,71.0566545 209.946558,73.1741718 C212.161358,75.3273921 213.5,78.3172488 213.5,81.6216216 C213.5,84.8440421 212.224889,87.7719629 210.15078,89.9144968 C208.073996,92.0597937 205.196245,93.4177827 201.994514,93.4966339 L172.571429,93.5 C169.789282,93.5 167.271251,92.3636411 165.448662,90.526348 C163.626838,88.6898263 162.5,86.1528335 162.5,83.3513514 C162.5,80.5498692 163.626838,78.0128764 165.448662,76.1763547 C167.140319,74.4710498 169.431088,73.3695884 171.975688,73.2200899 C171.940658,68.8062957 173.40997,65.2427216 175.790013,62.6888983 C178.238243,60.0619088 181.652009,58.5 185.428571,58.5 Z" id="路径备份-26" stroke="#BCB3F1" stroke-linejoin="round" fill-rule="nonzero"></path>
                <path d="M190.666667,74 C191.403046,74 192,74.5969537 192,75.3333333 L192,84.6666667 C192,85.4030463 191.403046,86 190.666667,86 L181.333333,86 C180.596954,86 180,85.4030463 180,84.6666667 L180,75.3333333 C180,74.5969537 180.596954,74 181.333333,74 L183.5,74 L183.5,74.3333333 C183.5,75.1130295 184.094888,75.753782 184.85554,75.8264668 L185,75.8333333 L187,75.8333333 C187.828427,75.8333333 188.5,75.1617605 188.5,74.3333333 L188.5,74 L190.666667,74 Z M183.87868,77.1715729 C183.683418,76.9763107 183.366835,76.9763107 183.171573,77.1715729 C182.976311,77.366835 182.976311,77.6834175 183.171573,77.8786797 L184.626333,79.333 L181.833333,79.3333333 C181.557191,79.3333333 181.333333,79.557191 181.333333,79.8333333 C181.333333,80.1094757 181.557191,80.3333333 181.833333,80.3333333 L185.499333,80.333 L185.499333,82 L182.5,82 C182.223858,82 182,82.2238576 182,82.5 C182,82.7761424 182.223858,83 182.5,83 L185.499333,83 L185.5,84.1666667 C185.5,84.442809 185.723858,84.6666667 186,84.6666667 C186.276142,84.6666667 186.5,84.442809 186.5,84.1666667 L186.499333,83 L189.5,83 C189.776142,83 190,82.7761424 190,82.5 C190,82.2238576 189.776142,82 189.5,82 L186.499333,82 L186.499333,80.333 L190.166667,80.3333333 C190.442809,80.3333333 190.666667,80.1094757 190.666667,79.8333333 C190.666667,79.557191 190.442809,79.3333333 190.166667,79.3333333 L187.373333,79.333 L188.828427,77.8786797 C189.023689,77.6834175 189.023689,77.366835 188.828427,77.1715729 C188.633165,76.9763107 188.316582,76.9763107 188.12132,77.1715729 L186,79.2928932 Z M187.5,74 L187.5,74.3333333 C187.5,74.6094757 187.276142,74.8333333 187,74.8333333 L185,74.8333333 C184.723858,74.8333333 184.5,74.6094757 184.5,74.3333333 L184.5,74 L187.5,74 Z" id="用户付费数据" fill="#A89DE2" opacity="0.5"></path>
                <path d="M74.9142857,32 C66.2962225,32 59.3142857,38.906703 59.3142857,47.4213037 L59.3249846,47.9973168 C59.339236,48.3803245 59.3676977,48.7612358 59.4102051,49.1394864 L59.43,49.2988235 L59.4857143,49.2972973 C53.1399083,49.2972973 48,54.3818206 48,60.6486486 C48,66.9154767 53.1399083,72 59.4857143,72 L94.4571429,72 L94.7859162,71.9960407 C102.137572,71.8147207 108,65.8776943 108,58.6136725 C108,51.2229582 101.939077,45.227345 94.4571429,45.227345 L93.964588,45.2360521 C92.8183954,45.2766322 91.6948957,45.4586835 90.6146302,45.7743787 L90.4296,45.8329412 L90.4090919,45.6326371 C89.5052761,37.9421136 82.9033296,32 74.9142857,32 Z" id="路径备份-23" fill="#F3F1FF" fill-rule="nonzero"></path>
                <path d="M76.9142857,31.5 C81.0164323,31.5 84.7639652,33.018617 87.6091172,35.5218379 C90.361682,37.9435989 92.2694703,41.286945 92.8380498,45.0688964 C94.0383984,44.9014901 94.9848408,44.7704261 95.9468969,44.7363652 C100.06074,44.7315794 103.667402,46.2617617 106.262599,48.7353306 C108.904358,51.2532794 110.5,54.7498729 110.5,58.6136725 C110.5,62.3820493 108.979805,65.8064772 106.505627,68.3121639 C104.032258,70.8170318 100.605344,72.4036166 96.7920555,72.49604 L61.4857143,72.5 C58.1759863,72.5 55.180936,71.1738594 53.012892,69.0311779 C50.8418917,66.8855745 49.5,63.9213606 49.5,60.6486486 C49.5,57.3759367 50.8418917,54.4117228 53.012892,52.2661194 C55.0482121,50.2546091 57.8123821,48.9627255 60.8813587,48.8120781 L60.8142876,47.429106 C60.8121538,43.0294213 62.6149538,39.0447366 65.5321802,36.1609267 C68.4447783,33.2816921 72.4684234,31.5 76.9142857,31.5 Z" id="路径备份-27" stroke="#BCB3F1" stroke-linejoin="round" fill-rule="nonzero"></path>
                <g id="编组-12" transform="translate(394.000000, 229.750000) scale(-1, 1) translate(-394.000000, -229.750000) translate(368.000000, 197.000000)">
                    <path d="M13.0759612,43.3682409 C7.55311374,43.3682409 3.07596123,47.8453934 3.07596123,53.3682409 C3.07596123,58.8910884 7.55311374,63.3682409 13.0759612,63.3682409" id="路径" stroke="#9A8CE0" stroke-width="3" transform="translate(8.075961, 53.368241) rotate(-10.000000) translate(-8.075961, -53.368241) "></path>
                    <path d="M11.420502,39.5137468 C5.06221152,39.8160667 0,45.0668619 0,51.5 C0,58.127417 5.372583,63.5 12,63.5 C12.9558514,63.5 13.8856005,63.3882429 14.7768936,63.1770823" id="路径" stroke="#A89DE2"></path>
                    <path d="M21.3034275,32.5 L42.6965725,32.5 C47.1148505,32.5 50.6965725,36.081722 50.6965725,40.5 C50.6965725,40.9011795 50.6663954,41.3017907 50.6062965,41.698443 L47.2576347,63.7996108 C47.1094968,64.7773211 46.2690729,65.5 45.2802037,65.5 L18.7197963,65.5 C17.7309271,65.5 16.8905032,64.7773211 16.7423653,63.7996108 L13.3937035,41.698443 C12.7318217,37.3300231 15.7365645,33.2521578 20.1049845,32.590276 C20.5016369,32.5301771 20.902248,32.5 21.3034275,32.5 Z" id="矩形" fill="#9A8CE0"></path>
                    <path d="M19.3034275,32.5 L40.6965725,32.5 C45.1148505,32.5 48.6965725,36.081722 48.6965725,40.5 C48.6965725,40.9011795 48.6663954,41.3017907 48.6062965,41.698443 L45.2576347,63.7996108 C45.1094968,64.7773211 44.2690729,65.5 43.2802037,65.5 L16.7197963,65.5 C15.7309271,65.5 14.8905032,64.7773211 14.7423653,63.7996108 L11.3937035,41.698443 C10.7318217,37.3300231 13.7365645,33.2521578 18.1049845,32.590276 C18.5016369,32.5301771 18.902248,32.5 19.3034275,32.5 Z" id="矩形备份-141" stroke="#A89DE2" stroke-linejoin="round"></path>
                    <path d="M30.9805638,0 C28.1353278,1.5 25.993028,9.2364943 30.4835548,14.9978721 C34.9740815,20.7592498 31.8744538,28.1364008 29.4382957,29.5 C35.9009965,30.5218652 38.8105989,18.7419668 33.9684185,13.8223989 C29.1262382,8.90283088 29.032851,4.5 30.9805638,0 Z" id="路径-46" fill="#9A8CE0"></path>
                    <path d="M30.5930266,0 C26.975163,1.71023745 24.993028,9.2364943 29.4835548,14.9978721 C33.9740815,20.7592498 30.8744538,28.1364008 28.4382957,29.5 C34.9009965,30.5218652 37.8105989,18.7419668 32.9684185,13.8223989 C28.1262382,8.90283088 28.6453139,4.5 30.5930266,0 Z" id="路径-46备份" stroke="#A89DE2" stroke-linejoin="round"></path>
                    <path d="M43.1538694,14.5 C41.6553554,15.2610997 40.5270601,19.1865954 42.8921073,22.1099173 C45.2571544,25.0332393 43.6246587,28.7764042 42.3415957,29.4682941 C45.7453372,29.9867884 47.2777513,24.0096702 44.7274971,21.5134824 C42.1772429,19.0172946 42.1280582,16.7832991 43.1538694,14.5 Z" id="路径-46备份-3" fill="#9A8CE0"></path>
                    <path d="M42.9497633,14.5 C41.0443258,15.3677741 39.4498738,19.0766781 41.8149209,22 C44.1799681,24.9233219 43.097984,28.7764042 41.8149209,29.4682941 C45.2186624,29.9867884 46.7510766,24.0096702 44.2008223,21.5134824 C41.6505681,19.0172946 41.9239522,16.7832991 42.9497633,14.5 Z" id="路径-46备份-2" stroke="#A89DE2" stroke-linejoin="round"></path>
                    <path d="M20.1538694,14.5 C18.6553554,15.2610997 17.5270601,19.1865954 19.8921073,22.1099173 C22.2571544,25.0332393 20.6246587,28.7764042 19.3415957,29.4682941 C22.7453372,29.9867884 24.2777513,24.0096702 21.7274971,21.5134824 C19.1772429,19.0172946 19.1280582,16.7832991 20.1538694,14.5 Z" id="路径-46备份-3" fill="#9A8CE0"></path>
                    <path d="M19.9497633,14.5 C18.0443258,15.3677741 16.4498738,19.3002936 18.8149209,22.2236155 C21.1799681,25.1469375 20.097984,28.7764042 18.8149209,29.4682941 C22.2186624,29.9867884 23.7510766,24.0096702 21.2008223,21.5134824 C18.6505681,19.0172946 18.9239522,16.7832991 19.9497633,14.5 Z" id="路径-46备份-2" stroke="#A89DE2" stroke-linejoin="round"></path>
                </g>
                <g id="编组-4" transform="translate(149.000000, 112.000000)">
                    <path d="M4,0 L178,0 C180.209139,-4.05812251e-16 182,1.790861 182,4 L182,112 C182,114.209139 180.209139,116 178,116 L4,116 C1.790861,116 2.705415e-16,114.209139 0,112 L0,4 C-2.705415e-16,1.790861 1.790861,4.05812251e-16 4,0 Z" id="矩形备份-36" fill="#A89DE2"></path>
                    <path d="M104,116 L104,143 L116,143 C118.209139,143 120,144.790861 120,147 C120,149.209139 118.209139,151 116,151 L66,151 C63.790861,151 62,149.209139 62,147 C62,144.790861 63.790861,143 66,143 L78,143 L78,116 L104,116 Z" id="形状结合" fill="#A89DE2"></path>
                    <rect id="矩形" fill="#ECE8FF" x="160" y="110" width="3" height="6"></rect>
                    <rect id="矩形备份-123" fill="#ECE8FF" x="165" y="110" width="3" height="6"></rect>
                    <rect id="矩形备份-124" fill="#ECE8FF" x="170" y="110" width="3" height="6"></rect>
                    <rect id="矩形" stroke="#A89DE2" stroke-width="2" fill="#FFFFFF" x="6" y="6" width="170" height="104" rx="4"></rect>
                    <g id="编组-16" transform="translate(21.000000, 73.000000)">
                        <rect id="矩形" fill="#ECE8FF" x="0" y="0" width="140" height="8" rx="4"></rect>
                        <g id="矩形-+-矩形备份-143-+-矩形备份-144-+-矩形备份-145-+-矩形备份-146-+-矩形备份-159-+-矩形备份-160-+-矩形备份-161-+-矩形备份-162-+-矩形备份-163-+-矩形备份-164-+-矩形备份-165-+-矩形备份-166-+-矩形备份-167-蒙版" transform="translate(2.000000, 2.000000)">
                            <mask id="mask-2" fill="white">
                                <use xlink:href="#path-1"></use>
                            </mask>
                            <use id="蒙版" fill="#A89DE2" xlink:href="#path-1"></use>
                            <rect id="矩形" fill="#ECE8FF" mask="url(#mask-2)" transform="translate(84.000000, 3.000000) rotate(-330.000000) translate(-84.000000, -3.000000) " x="83" y="-3" width="2" height="12" rx="1"></rect>
                            <rect id="矩形备份-12" fill="#ECE8FF" mask="url(#mask-2)" transform="translate(90.000000, 3.000000) rotate(-330.000000) translate(-90.000000, -3.000000) " x="89" y="-3" width="2" height="12" rx="1"></rect>
                            <rect id="矩形备份-143" fill="#ECE8FF" mask="url(#mask-2)" transform="translate(78.000000, 3.000000) rotate(-330.000000) translate(-78.000000, -3.000000) " x="77" y="-3" width="2" height="12" rx="1"></rect>
                            <rect id="矩形备份-144" fill="#ECE8FF" mask="url(#mask-2)" transform="translate(72.000000, 3.000000) rotate(-330.000000) translate(-72.000000, -3.000000) " x="71" y="-3" width="2" height="12" rx="1"></rect>
                            <rect id="矩形备份-145" fill="#ECE8FF" mask="url(#mask-2)" transform="translate(66.000000, 3.000000) rotate(-330.000000) translate(-66.000000, -3.000000) " x="65" y="-3" width="2" height="12" rx="1"></rect>
                            <rect id="矩形备份-146" fill="#ECE8FF" mask="url(#mask-2)" transform="translate(60.000000, 3.000000) rotate(-330.000000) translate(-60.000000, -3.000000) " x="59" y="-3" width="2" height="12" rx="1"></rect>
                            <rect id="矩形备份-159" fill="#ECE8FF" mask="url(#mask-2)" transform="translate(54.000000, 3.000000) rotate(-330.000000) translate(-54.000000, -3.000000) " x="53" y="-3" width="2" height="12" rx="1"></rect>
                            <rect id="矩形备份-160" fill="#ECE8FF" mask="url(#mask-2)" transform="translate(48.000000, 3.000000) rotate(-330.000000) translate(-48.000000, -3.000000) " x="47" y="-3" width="2" height="12" rx="1"></rect>
                            <rect id="矩形备份-161" fill="#ECE8FF" mask="url(#mask-2)" transform="translate(42.000000, 3.000000) rotate(-330.000000) translate(-42.000000, -3.000000) " x="41" y="-3" width="2" height="12" rx="1"></rect>
                            <rect id="矩形备份-162" fill="#ECE8FF" mask="url(#mask-2)" transform="translate(36.000000, 3.000000) rotate(-330.000000) translate(-36.000000, -3.000000) " x="35" y="-3" width="2" height="12" rx="1"></rect>
                            <rect id="矩形备份-163" fill="#ECE8FF" mask="url(#mask-2)" transform="translate(30.000000, 3.000000) rotate(-330.000000) translate(-30.000000, -3.000000) " x="29" y="-3" width="2" height="12" rx="1"></rect>
                            <rect id="矩形备份-164" fill="#ECE8FF" mask="url(#mask-2)" transform="translate(24.000000, 3.000000) rotate(-330.000000) translate(-24.000000, -3.000000) " x="23" y="-3" width="2" height="12" rx="1"></rect>
                            <rect id="矩形备份-165" fill="#ECE8FF" mask="url(#mask-2)" transform="translate(18.000000, 3.000000) rotate(-330.000000) translate(-18.000000, -3.000000) " x="17" y="-3" width="2" height="12" rx="1"></rect>
                            <rect id="矩形备份-166" fill="#ECE8FF" mask="url(#mask-2)" transform="translate(12.000000, 3.000000) rotate(-330.000000) translate(-12.000000, -3.000000) " x="11" y="-3" width="2" height="12" rx="1"></rect>
                            <rect id="矩形备份-167" fill="#ECE8FF" mask="url(#mask-2)" transform="translate(6.000000, 3.000000) rotate(-330.000000) translate(-6.000000, -3.000000) " x="5" y="-3" width="2" height="12" rx="1"></rect>
                        </g>
                    </g>
                    <text id="WELCOME备份" font-family="PingFangSC-Regular, PingFang SC" font-size="20" font-weight="normal" fill="#4A5060">
                        <tspan x="39" y="60">WELCOME</tspan>
                    </text>
                </g>
                <rect id="矩形" fill="#A89DE2" x="0" y="263" width="480" height="6" rx="3"></rect>
                <g id="编组-8" transform="translate(78.000000, 231.000000) scale(-1, 1) translate(-78.000000, -231.000000) translate(27.000000, 199.000000)">
                    <g id="椭圆形">
                        <mask id="mask-4" fill="white">
                            <use xlink:href="#path-3"></use>
                        </mask>
                        <use id="蒙版" fill="#ECE8FF" transform="translate(50.000000, 31.831291) scale(-1, 1) translate(-50.000000, -31.831291) " xlink:href="#path-3"></use>
                        <path d="M63.490826,19.4935671 C61.8989556,25.8941458 68.5754201,29.4823892 64.5148129,31.8312906 C60.4542056,34.180192 56.8450113,26.7826721 57.6836491,19.4935671" id="路径-15" fill="#9A8CE0" mask="url(#mask-4)" transform="translate(61.703645, 25.884234) scale(-1, 1) translate(-61.703645, -25.884234) "></path>
                        <path d="M74.1103796,19.3949756 C72.5185091,25.7955543 80.891746,31.2749004 76.0059228,34.295339 C71.1200996,37.3157776 67.4645649,26.6840806 68.3032026,19.3949756" id="路径-15备份" fill="#9A8CE0" mask="url(#mask-4)" transform="translate(72.869277, 27.108638) scale(-1, 1) translate(-72.869277, -27.108638) "></path>
                        <path d="M84.2440584,20.4105253 C86.3616206,21.0418219 88.3458716,21.9823857 90.1444153,23.1798208 C90.1464185,23.284242 90.1461723,23.3765935 90.1456346,23.4565101 L90.1446966,23.6106133 C90.1446966,30.4217582 86.5461643,37.8923673 82.3452442,35.295339 C77.459421,32.2749004 85.8326579,26.7955543 84.2407874,20.3949756 Z" id="形状结合" fill="#9A8CE0" mask="url(#mask-4)"></path>
                        <circle fill="#FFFFFF" mask="url(#mask-4)" cx="24" cy="58" r="21"></circle>
                    </g>
                    <path d="M38.7387387,51.3802817 L67.5675676,51.3802817 C71.0504444,51.3802817 73.8738739,54.2037112 73.8738739,57.686588 L73.8738739,57.6936937 C73.8738739,61.1765705 71.0504444,64 67.5675676,64 L38.7387387,64 L38.7387387,64 L38.7387387,51.3802817 Z" id="矩形" fill="#9A8CE0" transform="translate(56.306306, 57.690141) scale(-1, 1) translate(-56.306306, -57.690141) "></path>
                    <path d="M16.7715726,0.604076232 C19.3478103,1.81400026 18.9698363,13.570171 17.4723377,18.06741 C19.1709038,20.1501202 20.5751659,22.4828373 21.6216216,25.0019481 C19.9249391,25.7351638 18.0556597,26.1408451 16.0916817,26.1408451 C8.37959738,26.1408451 2.12771776,19.8854433 2.12771776,12.1690141 C2.12771776,10.9360394 2.28733734,9.74036697 2.58702856,8.60155557 C3.75608879,8.89189341 4.89530733,9.25639076 6.00023957,9.68928814 C8.21251468,6.24371337 14.2111368,-0.598426521 16.7715726,0.604076232 Z" id="形状结合" fill="#9A8CE0" transform="translate(11.874670, 13.302453) scale(-1, 1) translate(-11.874670, -13.302453) "></path>
                    <path d="M38.7387387,47.501859 C40.9018513,49.7757445 43.0476245,51.0428629 45.4140436,51.0428629 C46.9916563,51.0428629 56.3009656,51.0428629 73.3419715,51.0428629 C76.8248483,51.0428629 79.6482778,53.8678831 79.6482778,57.352722 C79.6482778,60.837561 76.8248483,63.6625812 73.3419715,63.6625812 L45.4140436,63.6625812" id="路径" stroke="#A89DE2" stroke-linecap="round" transform="translate(59.193508, 55.582220) scale(-1, 1) translate(-59.193508, -55.582220) "></path>
                    <path d="M29.9759545,24.5495642 C30.740745,24.261815 33.1620396,24.0515837 36.030699,24.0515837 C38.9060653,24.0515837 41.3319725,24.2627992 42.0907806,24.5515837" id="路径" stroke="#9A8CE0" stroke-width="1.8018018" stroke-linecap="round" transform="translate(36.033368, 24.301584) scale(-1, -1) translate(-36.033368, -24.301584) "></path>
                    <path d="M11.0570356,24.5495642 C11.8218261,24.261815 14.2431207,24.0515837 17.1117801,24.0515837 C19.9871464,24.0515837 22.4130535,24.2627992 23.1718616,24.5515837" id="路径备份-13" stroke="#9A8CE0" stroke-width="1.8018018" stroke-linecap="round" transform="translate(17.114449, 24.301584) scale(-1, -1) translate(-17.114449, -24.301584) "></path>
                    <path d="M19.3750194,33.9589986 C19.8499946,32.8080019 21.353746,31.9670766 23.1353346,31.9670766 C24.9210884,31.9670766 26.4277045,32.8119386 26.8989643,33.9670766" id="路径备份-14" stroke="#9A8CE0" stroke-width="1.8018018" stroke-linecap="round" transform="translate(23.136992, 32.967077) scale(-1, -1) translate(-23.136992, -32.967077) "></path>
                    <path d="M25.8510746,33.9589986 C26.3260497,32.8080019 27.8298012,31.9670766 29.6113897,31.9670766 C31.3971436,31.9670766 32.9037596,32.8119386 33.3750194,33.9670766" id="路径备份-19" stroke="#9A8CE0" stroke-width="1.8018018" stroke-linecap="round" transform="translate(29.613047, 32.967077) scale(-1, -1) translate(-29.613047, -32.967077) "></path>
                    <path d="M23.92121,29.42747 C23.92121,29.0529289 28.8288288,28.6634714 28.8288288,29.42747 C28.8288288,30.1914686 26.9689064,32.7287373 26.3750194,32.7287373 C25.7811325,32.7287373 23.92121,29.8020112 23.92121,29.42747 Z" id="路径-16" stroke="#9A8CE0" stroke-width="1.8018018" fill="#9A8CE0" transform="translate(26.375019, 30.858707) scale(-1, 1) translate(-26.375019, -30.858707) "></path>
                    <path d="M68.1355394,8.40943353 L68.5023718,8.3310102 C70.302205,7.96655142 72.1648116,7.77525726 74.0720721,7.77525726 C77.6636999,7.77525726 81.096976,8.45362367 84.2509002,9.68928814 C86.4631753,6.24371337 92.4617974,-0.598426521 95.0222332,0.604076232 C97.5984709,1.81400026 97.2204969,13.570171 95.7229983,18.06741 C99.6467376,22.8785339 102,29.0237548 102,35.7189192 C102,51.1517776 89.4962408,63.6625812 74.0720721,63.6625812 C73.5145069,63.6625812 72.960758,63.6462329 72.411278,63.6139892 C71.9180612,63.6458542 71.4204435,63.6625812 70.9189189,63.6625812 L24.0720721,63.6625812 C11.8820033,63.6625812 2,53.7805779 2,41.5905091 L2,41.5656392 C2,29.3755704 11.8820033,19.4935671 24.0720721,19.4935671 L51.331871,19.4933087 C52.8547712,17.360379 54.6699537,15.450708 56.7188788,13.8228684 C56.6554701,11.0995678 55.6368626,1.219896 57.4854461,0.114248247 C59.2715744,-0.954044627 65.9678886,5.75338785 68.1355394,8.40943353 Z" id="形状结合备份-5" stroke="#A89DE2" stroke-linecap="round" stroke-linejoin="round" transform="translate(52.000000, 31.831291) scale(-1, 1) translate(-52.000000, -31.831291) "></path>
                </g>
                <path d="M83.2222222,48 C84.2040618,48 85,48.7959382 85,49.7777778 L85,62.2222222 C85,63.2040618 84.2040618,64 83.2222222,64 L70.7777778,64 C69.7959382,64 69,63.2040618 69,62.2222222 L69,49.7777778 C69,48.7959382 69.7959382,48 70.7777778,48 L83.2222222,48 Z M77,49.7777778 C74.9135909,49.7777778 73.2222222,51.4691465 73.2222222,53.5555556 C73.2222222,54.7337201 73.7615481,55.7859183 74.6064914,56.4781635 C73.6458512,56.879125 72.7940353,57.5192054 72.1332701,58.3485415 C71.4115451,59.2543891 70.9552297,60.3326844 70.8200471,61.4904754 C70.7773476,61.8561809 71.0391958,62.1872585 71.4049013,62.229958 C71.7706068,62.2726574 72.1016844,62.0108093 72.1443838,61.6451038 C72.2503765,60.7373146 72.6078445,59.8926003 73.1760848,59.1793936 C74.0991806,58.0208026 75.4928696,57.3333333 77,57.3333333 C79.4887026,57.3333333 81.5710987,59.1970491 81.8558662,61.6448281 C81.8984133,62.0105513 82.2293819,62.2725373 82.5951051,62.2299901 C82.9608284,62.1874429 83.2228144,61.8564744 83.1802672,61.4907511 C82.9143988,59.2054233 81.4199945,57.320918 79.3941993,56.4779277 C80.2388692,55.7851039 80.7777778,54.7332642 80.7777778,53.5555556 C80.7777778,51.4691465 79.0864091,49.7777778 77,49.7777778 Z M77,51.1111111 C78.3500294,51.1111111 79.4444444,52.2055262 79.4444444,53.5555556 C79.4444444,54.9055849 78.3500294,56 77,56 C75.6499706,56 74.5555556,54.9055849 74.5555556,53.5555556 C74.5555556,52.2055262 75.6499706,51.1111111 77,51.1111111 Z" id="用户列表数据" fill="#A89DE2" opacity="0.5"></path>
            </g>
        </g>
    </g>
</svg>