<?xml version="1.0" encoding="UTF-8"?>
<svg width="16px" height="16px" viewBox="0 0 16 16" version="1.1" xmlns="http://www.w3.org/2000/svg" xmlns:xlink="http://www.w3.org/1999/xlink">
    <g id="页面-1" stroke="none" stroke-width="1" fill="none" fill-rule="evenodd">
        <g id="JPassword服务监测系统UI" transform="translate(-2737.000000, -3386.000000)" fill="#03A8F1">
            <path d="M2745,3386 C2749.41828,3386 2753,3389.58172 2753,3394 C2753,3395.07497 2752.78798,3396.10043 2752.40347,3397.03682 C2751.9811,3396.93132 2751.27988,3396.73184 2750.14106,3396.35764 C2749.51444,3396.15784 2748.65284,3395.7982 2747.67375,3395.43856 C2748.2612,3394.43956 2748.692,3393.28072 2749.00531,3392.002 L2745.83306,3392.002 L2745.83306,3390.84316 L2749.71026,3390.84316 L2749.71026,3390.2038 L2745.83306,3390.2038 L2745.83306,3388.28571 L2744.26652,3388.28571 C2744.02283,3388.28571 2743.99576,3388.50673 2743.99275,3388.55584 L2743.99237,3390.2038 L2740.07601,3390.2038 L2740.07601,3390.84316 L2743.99237,3390.84316 L2743.99237,3392.002 L2740.78096,3392.002 L2740.78096,3392.64136 L2747.04713,3392.64136 C2746.81215,3393.44056 2746.49884,3394.1998 2746.14637,3394.87912 C2744.10986,3394.1998 2741.95586,3393.64036 2740.58514,3394 C2739.72354,3394.1998 2739.13609,3394.5994 2738.82278,3394.999 C2737.2954,3396.87712 2738.39198,3399.71429 2741.60339,3399.71429 C2743.48325,3399.71429 2745.32393,3398.63536 2746.73382,3396.87712 C2747.96949,3397.48417 2749.9004,3398.33678 2751.29227,3398.94075 C2749.82773,3400.80357 2747.55359,3402 2745,3402 C2740.58172,3402 2737,3398.41828 2737,3394 C2737,3389.58172 2740.58172,3386 2745,3386 Z M2745.32393,3396.1978 C2744.18819,3397.71628 2742.73914,3398.63536 2741.29008,3398.63536 C2738.78361,3398.63536 2738.07867,3396.63736 2739.29274,3395.55844 C2739.68438,3395.1988 2740.46765,3394.999 2740.85928,3394.95904 C2742.3475,3394.7992 2743.71823,3395.3986 2745.32393,3396.1978 Z" id="形状结合备份-18"></path>
        </g>
    </g>
</svg>